<svg xmlns='http://www.w3.org/2000/svg' xmlns:xlink='http://www.w3.org/1999/xlink' viewBox='-1960 -340 2060 2065.685'>
<rect fill="white" stroke="black" stroke-width="5" x="-1960" y="-340" width="2060" height="2065.685" />
<path fill="none" stroke="black" d="M -360,0 L 0,0 L 0,42.5 L -360,42.5 L -360,0 M -360,-240 L -360,0 L -402.5,0 L -402.5,-240 L -360,-240 M -1860,-240 L -360,-240 L -360,-197.5 L -1860,-197.5 L -1860,-240 M -1860,1060 L -1860,-240 L -1817.5,-240 L -1817.5,1060 L -1860,1060 M -1660,1060 L -1860,1060 L -1860,1000 L -1660,1000 L -1660,1060 M -1094.315,1625.685 L -1660,1060 L -1575.1480000000001,975.147 L -1009.463,1540.832 L -1094.315,1625.685 M -694.315,1625.685 L -1094.315,1625.685 L -1094.315,1565.685 L -694.315,1565.685 L -694.315,1625.685 M -128.63,1059.999 L -694.315,1625.685 L -779.1679999999999,1540.832 L -213.483,975.146 L -128.63,1059.999"/>
<path fill="none" stroke="red" stroke-width="3" d="M -360,0 L 0,0 M -360,-240 L -360,0 M -1860,-240 L -360,-240 M -1860,1060 L -1860,-240 M -1660,1060 L -1860,1060 M -1094.315,1625.685 L -1660,1060 M -694.315,1625.685 L -1094.315,1625.685 M -128.63,1059.999 L -694.315,1625.685"/>
</svg>