<svg xmlns='http://www.w3.org/2000/svg' xmlns:xlink='http://www.w3.org/1999/xlink' viewBox='-2470.001 -1815 2570.0009999999997 4327.634'>
<rect fill="white" stroke="black" stroke-width="5" x="-2470.001" y="-1815" width="2570.0009999999997" height="4327.634" />
<path fill="none" stroke="black" d="M -730,0 L 0,0 L 0,-42.5 L -751.25,21.251 L -730,0 M -730,-410 L -730,0 L -751.25,21.251 L -772.5,-410 L -730,-410 M -482.5,-410 L -730,-410 L -772.5,-410 L -503.75,-388.74899999999997 L -482.5,-410 M -482.5,-1715 L -482.5,-410 L -503.75,-388.74899999999997 L -482.5,-1715 L -482.5,-1715 M -2130,-1715 L -482.5,-1715 L -482.5,-1715 L -2179.999,-1764.999 L -2130,-1715 M -2130,-678.75 L -2130,-1715 L -2179.999,-1764.999 L -2155,-722.051 L -2130,-678.75 M -2370.001,-263.058 L -2130,-678.75 L -2155,-722.051 L -2420,-313.057 L -2370.001,-263.058 M -2370.001,186.94199999999998 L -2370.001,-263.058 L -2420,-313.057 L -2445,143.642 L -2370.001,186.94199999999998 M -2130.002,602.634 L -2370.001,186.94199999999998 L -2445,143.642 L -2180.001,552.635 L -2130.002,602.634 M -2130.002,2412.634 L -2130.002,602.634 L -2180.001,552.635 L -2230.002,2412.634 L -2130.002,2412.634 M -150.003,2412.634 L -2130.002,2412.634 L -2172.502,2412.634 L -171.252,2433.884 L -150.003,2412.634 M -150.003,602.633 L -150.003,2412.634 L -171.252,2433.884 L -107.50299999999999,602.633 L -150.003,602.633"/>
<path fill="none" stroke="red" stroke-width="3" d="M -730,0 L 0,0 M -730,-410 L -730,0 M -482.5,-410 L -730,-410 M -482.5,-1715 L -482.5,-410 M -2130,-1715 L -482.5,-1715 M -2130,-678.75 L -2130,-1715 M -2370.001,-263.058 L -2130,-678.75 M -2370.001,186.94199999999998 L -2370.001,-263.058 M -2130.002,602.634 L -2370.001,186.94199999999998 M -2130.002,2412.634 L -2130.002,602.634 M -150.003,2412.634 L -2130.002,2412.634 M -150.003,602.633 L -150.003,2412.634"/>
</svg>