<svg xmlns='http://www.w3.org/2000/svg' xmlns:xlink='http://www.w3.org/1999/xlink' viewBox='-2570.0009999999997 -1857.501 2670.0009999999997 4470.135'>
<rect fill="white" stroke="black" stroke-width="5" x="-2570.0009999999997" y="-1857.501" width="2670.0009999999997" height="4470.135" />
<path fill="none" stroke="black" d="M -730,0 L 0,0 L 0,-42.5 L -687.5,-42.5 L -730,0 M -730,-410 L -730,0 L -687.5,-42.5 L -687.5,-367.5 L -730,-410 M -482.5,-410 L -730,-410 L -687.5,-367.5 L -440,-367.5 L -482.5,-410 M -482.5,-1715 L -482.5,-410 L -440,-367.5 L -440,-1757.5 L -482.5,-1715 M -2130,-1715 L -482.5,-1715 L -440,-1757.5 L -2230,-1757.501 L -2130,-1715 M -2130,-678.75 L -2130,-1715 L -2230,-1757.501 L -2230.001,-705.544 L -2130,-678.75 M -2370,-263.058 L -2130,-678.75 L -2230.001,-705.544 L -2470,-289.85400000000004 L -2370,-263.058 M -2370,186.94199999999998 L -2370,-263.058 L -2470,-289.85400000000004 L -2470.001,213.736 L -2370,186.94199999999998 M -2130,602.634 L -2370,186.94199999999998 L -2470.001,213.736 L -2230,629.43 L -2130,602.634 M -2130,2412.634 L -2130,602.634 L -2230,629.43 L -2230,2512.634 L -2130,2412.634 M -150,2412.634 L -2130,2412.634 L -2230,2512.634 L -107.5,2512.634 L -150,2412.634 M -150,602.634 L -150,2412.634 L -107.5,2512.634 L -107.5,602.634 L -150,602.634"/>
<path fill="none" stroke="red" stroke-width="3" d="M -730,0 L 0,0 M -730,-410 L -730,0 M -482.5,-410 L -730,-410 M -482.5,-1715 L -482.5,-410 M -2130,-1715 L -482.5,-1715 M -2130,-678.75 L -2130,-1715 M -2370,-263.058 L -2130,-678.75 M -2370,186.94199999999998 L -2370,-263.058 M -2130,602.634 L -2370,186.94199999999998 M -2130,2412.634 L -2130,602.634 M -150,2412.634 L -2130,2412.634 M -150,602.634 L -150,2412.634"/>
</svg>