<svg xmlns='http://www.w3.org/2000/svg' xmlns:xlink='http://www.w3.org/1999/xlink' viewBox='-2570.0170000000003 -1862.5 2670.0170000000003 4480.109'>
<rect fill="white" stroke="black" stroke-width="5" x="-2570.0170000000003" y="-1862.5" width="2670.0170000000003" height="4480.109" />
<path fill="none" stroke="black" d="M -730,0 L 0,0 L 0,-42.5 L -687.5,-42.5 L -730,0 M -730,-410 L -730,0 L -687.5,-42.5 L -687.5,-367.5 L -730,-410 M -482.5,-410 L -730,-410 L -687.5,-367.5 L -440,-367.5 L -482.5,-410 M -482.5,-1720 L -482.5,-410 L -440,-367.5 L -440,-1762.5 L -482.5,-1720 M -2130,-1720 L -482.5,-1720 L -440,-1762.5 L -2229.997,-1762.4959999999999 L -2130,-1720 M -2130,-678.75 L -2130,-1720 L -2229.997,-1762.4959999999999 L -2230.017,-705.514 L -2130,-678.75 M -2370,-263.07 L -2130,-678.75 L -2230.017,-705.514 L -2469.996,-289.896 L -2370,-263.07 M -2370,186.93 L -2370,-263.07 L -2469.996,-289.896 L -2470.017,213.69400000000002 L -2370,186.93 M -2130,602.61 L -2370,186.93 L -2470.017,213.69400000000002 L -2229.996,629.436 L -2130,602.61 M -2130,2417.61 L -2130,602.61 L -2229.996,629.436 L -2229.999,2517.609 L -2130,2417.61 M -150,2417.61 L -2130,2417.61 L -2229.999,2517.609 L -107.50399999999999,2517.607 L -150,2417.61 M -150,602.61 L -150,2417.61 L -107.50399999999999,2517.607 L -107.5,602.61 L -150,602.61"/>
<path fill="none" stroke="red" stroke-width="3" d="M -730,0 L 0,0 M -730,-410 L -730,0 M -482.5,-410 L -730,-410 M -482.5,-1720 L -482.5,-410 M -2130,-1720 L -482.5,-1720 M -2130,-678.75 L -2130,-1720 M -2370,-263.07 L -2130,-678.75 M -2370,186.93 L -2370,-263.07 M -2130,602.61 L -2370,186.93 M -2130,2417.61 L -2130,602.61 M -150,2417.61 L -2130,2417.61 M -150,602.61 L -150,2417.61"/>
</svg>